I took the PSIG Files, removed the Polish track and converted them to avi files with SUPER from eRightsoft.

Format                                   : AVI
Format/Info                              : Audio Video Interleave
File size                                : 330 MiB
Duration                                 : 45mn 16s
Overall bit rate                         : 1 020 Kbps
Movie name                               : Jo.S01E06.HDTV.XviD-Tallyortoby (1).mkv
Director                                 : created.with.SUPER(C)+Recorder.2013.55
Writing application                      : SUPER(C)   

Video
ID                                       : 0
Format                                   : MPEG-4 Visual
Format profile                           : Advanced Simple@L5
Format settings, BVOP                    : No
Format settings, QPel                    : No
Format settings, GMC                     : No warppoints
Format settings, Matrix                  : Default (H.263)
Codec ID                                 : XVID
Codec ID/Hint                            : XviD
Duration                                 : 45mn 16s
Bit rate                                 : 879 Kbps
Width                                    : 640 pixels
Height                                   : 360 pixels
Display aspect ratio                     : 16:9
Frame rate                               : 25.000 fps
Color space                              : YUV
Chroma subsampling                       : 4:2:0
Bit depth                                : 8 bits
Scan type                                : Progressive
Compression mode                         : Lossy
Bits/(Pixel*Frame)                       : 0.153
Stream size                              : 285 MiB (86%)
Writing library                          : SUPER(C)   

Audio
ID                                       : 1
Format                                   : MPEG Audio
Format version                           : Version 1
Format profile                           : Layer 3
Mode                                     : Joint stereo
Mode extension                           : MS Stereo
Codec ID                                 : 55
Codec ID/Hint                            : MP3
Duration                                 : 45mn 16s
Bit rate mode                            : Constant
Bit rate                                 : 128 Kbps
Channel(s)                               : 2 channels
Sampling rate                            : 48.0 KHz
Compression mode                         : Lossy
Stream size                              : 41.5 MiB (13%)
Alignment                                : Aligned on interleaves
Interleave, duration                     : 24 ms (0.60 video frame)
Interleave, preload duration             : 24 ms